<svg xmlns="http://www.w3.org/2000/svg" width="475.714" height="297" viewBox="0 0 475.714 297">
  <g id="Group_96" data-name="Group 96" transform="translate(0)">
    <circle id="Ellipse_11" data-name="Ellipse 11" cx="90.502" cy="90.502" r="90.502" transform="translate(33.825)" fill="#f2f2f2"/>
    <path id="Path_41" data-name="Path 41" d="M31.391,151.642c0,32.928,20.657,59.573,46.186,59.573" transform="translate(-31.391 -129.912)" fill="#2f2e41"/>
    <path id="Path_42" data-name="Path 42" d="M140.092,210.31c0-33.3,23.053-60.243,51.541-60.243" transform="translate(-93.906 -129.006)" fill="#6c63ff"/>
    <path id="Path_43" data-name="Path 43" d="M70.775,158.668c0,31.278,13.173,56.589,29.452,56.589" transform="translate(-54.041 -133.953)" fill="#6c63ff"/>
    <path id="Path_44" data-name="Path 44" d="M140.092,187.66c0-42.548,26.645-76.977,59.573-76.977" transform="translate(-93.906 -106.356)" fill="#2f2e41"/>
    <path id="Path_45" data-name="Path 45" d="M117.224,288.048s6.55-.2,8.524-1.607,10.075-3.084,10.565-.83,9.843,11.212,2.449,11.272-17.182-1.152-19.153-2.352S117.224,288.048,117.224,288.048Z" transform="translate(-80.754 -206.325)" fill="#a8a8a8"/>
    <path id="Path_46" data-name="Path 46" d="M138.893,300.878c-7.395.06-17.182-1.152-19.153-2.352-1.5-.914-2.1-4.193-2.3-5.706l-.219.008s.415,5.283,2.385,6.483,11.758,2.412,19.153,2.352c2.135-.017,2.872-.777,2.831-1.9C141.3,300.44,140.482,300.865,138.893,300.878Z" transform="translate(-80.754 -211.104)" opacity="0.2"/>
    <ellipse id="Ellipse_12" data-name="Ellipse 12" cx="79.455" cy="10.809" rx="79.455" ry="10.809" transform="translate(4.933 169.558)" fill="#3f3d56"/>
    <ellipse id="Ellipse_13" data-name="Ellipse 13" cx="66.708" cy="9.075" rx="66.708" ry="9.075" transform="translate(17.679 171.292)" fill="#f5365c" opacity="0.55"/>
    <ellipse id="Ellipse_14" data-name="Ellipse 14" cx="120.245" cy="16.358" rx="120.245" ry="16.358" transform="translate(235.224 264.283)" fill="#f5365c"/>
    <ellipse id="Ellipse_15" data-name="Ellipse 15" cx="72.232" cy="9.827" rx="72.232" ry="9.827" transform="translate(59.744 264.442)" fill="#f5365c"/>
    <path id="Path_47" data-name="Path 47" d="M494,674.74c38.24,9.772,111.747-12.747,119.82-38.24" transform="translate(-297.441 -408.758)" fill="none" stroke="#2f2e41" stroke-miterlimit="10" stroke-width="2"/>
    <path id="Path_48" data-name="Path 48" d="M341,356.463s55.236-15.3,58.635,33.991-45.464,63.309-7.223,73.082" transform="translate(-209.449 -246.416)" fill="none" stroke="#2f2e41" stroke-miterlimit="10" stroke-width="2"/>
    <path id="Path_49" data-name="Path 49" d="M215.4,636.87s16.6-4.6,17.623,10.216-13.664,19.028-2.171,21.965" transform="translate(-137.217 -408.583)" fill="none" stroke="#2f2e41" stroke-miterlimit="10" stroke-width="2"/>
    <path id="Path_50" data-name="Path 50" d="M793.356,662l-3.347,21.37s-16.478,8.754-4.892,9.011,66.17,0,66.17,0,10.556,0-6.179-9.269l-3.347-22.4Z" transform="translate(-462.489 -422.681)" fill="#f5365c"/>
    <path id="Path_51" data-name="Path 51" d="M782.79,692.147a45.57,45.57,0,0,1,7.223-4.781L793.36,666l48.4.046,3.347,21.067a43.952,43.952,0,0,1,7.735,5.089c2.149-.49,4.5-2.313-7.735-9.088l-3.347-22.4L793.36,662l-3.347,21.37S776.167,690.724,782.79,692.147Z" transform="translate(-462.494 -422.681)" opacity="0.1"/>
    <rect id="Rectangle_25" data-name="Rectangle 25" width="218.077" height="151.908" rx="18.046" transform="translate(245.772 90.37)" fill="#f5365c"/>
    <rect id="Rectangle_26" data-name="Rectangle 26" width="203.402" height="113.802" transform="translate(253.11 98.48)" fill="#3f3d56"/>
    <circle id="Ellipse_16" data-name="Ellipse 16" cx="1.287" cy="1.287" r="1.287" transform="translate(353.524 93.588)" fill="#f2f2f2"/>
    <path id="Path_52" data-name="Path 52" d="M827.9,621.322v13.317a7.667,7.667,0,0,1-7.668,7.667H617.492a7.667,7.667,0,0,1-7.668-7.669V621.322Z" transform="translate(-364.052 -400.029)" fill="#f5365c"/>
    <path id="Path_53" data-name="Path 53" d="M781.487,654.92v2.575H642.968v-2.06l.191-.515,3.414-9.269H778.655Z" transform="translate(-369.776 -371.319)" fill="#2f2e41"/>
    <path id="Path_54" data-name="Path 54" d="M1073.193,750.034c-.252,1.079-1.2,2.217-3.357,3.293-7.724,3.862-23.43-1.03-23.43-1.03s-12.1-2.06-12.1-7.467a9.691,9.691,0,0,1,1.061-.631c3.247-1.718,14.015-5.958,33.107.18a7.963,7.963,0,0,1,3.629,2.378A3.8,3.8,0,0,1,1073.193,750.034Z" transform="translate(-608.174 -468.953)" fill="#2f2e41"/>
    <path id="Path_55" data-name="Path 55" d="M1074.629,750.035c-9.454,3.623-17.881,3.893-26.53-2.114a18.993,18.993,0,0,0-11.3-3.72c3.247-1.718,14.015-5.958,33.107.18a7.962,7.962,0,0,1,3.629,2.378A3.8,3.8,0,0,1,1074.629,750.035Z" transform="translate(-609.61 -468.954)" opacity="0.1"/>
    <ellipse id="Ellipse_17" data-name="Ellipse 17" cx="3.347" cy="1.03" rx="3.347" ry="1.03" transform="translate(449.818 276.907)" fill="#f2f2f2"/>
    <circle id="Ellipse_18" data-name="Ellipse 18" cx="4.892" cy="4.892" r="4.892" transform="translate(349.919 226.958)" fill="#f2f2f2"/>
    <path id="Path_56" data-name="Path 56" d="M781.487,667.466v2.575H642.968v-2.06l.191-.515Z" transform="translate(-369.776 -383.865)" opacity="0.1"/>
    <rect id="Rectangle_27" data-name="Rectangle 27" width="88.378" height="102.824" transform="translate(46.147 67.558)" fill="#2f2e41"/>
    <rect id="Rectangle_28" data-name="Rectangle 28" width="106.223" height="36.541" transform="translate(37.224 57.361)" fill="#f5365c"/>
    <rect id="Rectangle_29" data-name="Rectangle 29" width="106.223" height="36.541" transform="translate(37.224 100.7)" fill="#f5365c"/>
    <rect id="Rectangle_30" data-name="Rectangle 30" width="106.223" height="36.541" transform="translate(37.224 144.039)" fill="#f5365c"/>
    <rect id="Rectangle_31" data-name="Rectangle 31" width="6.798" height="6.798" transform="translate(115.405 63.734)" fill="#7e0b22" opacity="0.4"/>
    <rect id="Rectangle_32" data-name="Rectangle 32" width="6.798" height="6.798" transform="translate(125.177 63.734)" fill="#7e0b22" opacity="0.8"/>
    <rect id="Rectangle_33" data-name="Rectangle 33" width="6.798" height="6.798" transform="translate(134.95 63.734)" fill="#7e0b22"/>
    <rect id="Rectangle_34" data-name="Rectangle 34" width="6.798" height="6.798" transform="translate(115.405 106.648)" fill="#7e0b22" opacity="0.4"/>
    <rect id="Rectangle_35" data-name="Rectangle 35" width="6.798" height="6.798" transform="translate(125.177 106.648)" fill="#7e0b22" opacity="0.8"/>
    <rect id="Rectangle_36" data-name="Rectangle 36" width="6.798" height="6.798" transform="translate(134.95 106.648)" fill="#7e0b22"/>
    <rect id="Rectangle_37" data-name="Rectangle 37" width="6.798" height="6.798" transform="translate(115.405 149.562)" fill="#7e0b22" opacity="0.4"/>
    <rect id="Rectangle_38" data-name="Rectangle 38" width="6.798" height="6.798" transform="translate(125.177 149.562)" fill="#7e0b22" opacity="0.8"/>
    <rect id="Rectangle_39" data-name="Rectangle 39" width="6.798" height="6.798" transform="translate(134.95 149.562)" fill="#7e0b22"/>
    <circle id="Ellipse_19" data-name="Ellipse 19" cx="33.567" cy="33.567" r="33.567" transform="translate(100.958 195.026)" fill="#2f2e41"/>
    <rect id="Rectangle_40" data-name="Rectangle 40" width="10.197" height="18.27" transform="translate(119.229 254.936)" fill="#2f2e41"/>
    <rect id="Rectangle_41" data-name="Rectangle 41" width="10.197" height="18.27" transform="translate(139.624 254.936)" fill="#2f2e41"/>
    <ellipse id="Ellipse_20" data-name="Ellipse 20" cx="8.498" cy="3.187" rx="8.498" ry="3.187" transform="translate(119.229 270.232)" fill="#2f2e41"/>
    <ellipse id="Ellipse_21" data-name="Ellipse 21" cx="8.498" cy="3.187" rx="8.498" ry="3.187" transform="translate(139.624 269.807)" fill="#2f2e41"/>
    <circle id="Ellipse_22" data-name="Ellipse 22" cx="11.472" cy="11.472" r="11.472" transform="translate(123.903 208.622)" fill="#fff"/>
    <circle id="Ellipse_23" data-name="Ellipse 23" cx="3.824" cy="3.824" r="3.824" transform="translate(131.551 216.27)" fill="#3f3d56"/>
    <path id="Path_57" data-name="Path 57" d="M270.7,527.055c-2.71-12.138,5.954-24.4,19.351-27.395s26.456,4.423,29.166,16.561-6.169,16.615-19.567,19.607S273.406,539.193,270.7,527.055Z" transform="translate(-168.731 -329.678)" fill="#f5365c"/>
    <ellipse id="Ellipse_24" data-name="Ellipse 24" cx="16.783" cy="5.269" rx="16.783" ry="5.269" transform="translate(146.431 218.813) rotate(-23.171)" fill="#2f2e41"/>
    <ellipse id="Ellipse_25" data-name="Ellipse 25" cx="16.783" cy="5.269" rx="16.783" ry="5.269" transform="translate(83.547 241.332) rotate(-23.171)" fill="#2f2e41"/>
    <path id="Path_58" data-name="Path 58" d="M345.116,658.355c0,3.285-8.459,9.773-17.846,9.773S309,662.065,309,658.78s8.884-2.549,18.27-2.549S345.116,655.07,345.116,658.355Z" transform="translate(-191.046 -419.99)" fill="#fff"/>
  </g>
</svg>
