<svg xmlns="http://www.w3.org/2000/svg" width="507.316" height="305.5" viewBox="0 0 507.316 305.5">
  <g id="Group_95" data-name="Group 95" transform="translate(0 -0.018)">
    <path id="Path_13" data-name="Path 13" d="M721.412,319.269l4.35-.752c.417-.073.832-.162,1.249-.238a35.71,35.71,0,0,1,22.8-65.828l-5.7,13.567,13.509-11.8a.606.606,0,0,1,.092.031,35.712,35.712,0,0,1,21.82,45.549c-.226.643-.495,1.257-.753,1.879a42.693,42.693,0,0,0,10.455-7c6.04-5.788,9.349-13.774,13.047-23.614,7.327-19.5,14.38-39.28,21.153-59.1a35.7,35.7,0,0,1-16.689-43.228c.363-1.031.783-2.024,1.229-3,.111-.244.224-.486.34-.727.453-.935.931-1.85,1.455-2.729.086-.144.182-.279.269-.421q.685-1.112,1.445-2.157c.189-.262.377-.523.572-.778.574-.751,1.169-1.481,1.8-2.178.209-.233.432-.451.647-.679q.722-.762,1.484-1.479c.268-.251.533-.5.808-.747.071-.062.136-.13.207-.192l.01.014a35.687,35.687,0,0,1,45.66-1.026l-7.419,17.655L868.6,158.634a35.514,35.514,0,0,1,1.32,42.059l.037.012c-.146.214-.311.41-.461.621q-.423.593-.865,1.164c-.379.489-.773.961-1.176,1.427-.3.352-.6.706-.919,1.044-.462.495-.947.963-1.435,1.429-.285.272-.557.557-.85.819q-1.151,1.029-2.383,1.952c-.288.216-.592.406-.885.612-.576.405-1.155.8-1.754,1.175-.371.229-.752.439-1.131.655-.549.312-1.1.615-1.665.9-.4.2-.8.391-1.21.576-.579.264-1.166.509-1.758.742-.4.156-.793.314-1.2.456-.665.234-1.34.438-2.019.633-.343.1-.68.211-1.026.3-1.018.26-2.048.481-3.09.65-.2.032-.4.044-.592.073-.864.126-1.732.227-2.607.289-.376.027-.755.03-1.132.045-.707.028-1.415.042-2.127.026-.415-.009-.83-.03-1.246-.054q-1.04-.059-2.081-.181c-.411-.048-.82-.095-1.231-.157-.744-.113-1.487-.26-2.23-.422-.049-.011-.1-.017-.146-.028q-4.288,12.545-8.734,25.037a35.687,35.687,0,0,1,51.747,4.266L863.409,258.4l16.717-6.673a35.589,35.589,0,0,1,1.429,27.186,35.031,35.031,0,0,1-4.536,8.776,35.7,35.7,0,0,1-64.5-15.662c-.314.839-.618,1.689-.932,2.527-3.263,8.681-7.323,19.484-15.477,27.295-5.527,5.294-12.327,8.653-18.851,11.492q-6.372,2.773-12.914,5.128a35.79,35.79,0,0,1-15.982,5.093c-6.882,1.912-13.85,3.507-20.884,4.74l-4.386.756c-3.941.675-7.983,1.37-11.994,2.171.578.171,1.156.335,1.73.537a35.723,35.723,0,0,1,23.848,34.755l-27.495,8.439,24.88,3.951a35.728,35.728,0,0,1-59.532,10.565q.379,1.269.761,2.534c.505,1.676,1.006,3.343,1.487,4.994,6.547,22.5,3.729,40.191-7.935,49.824l-6.329-7.662c11.352-9.378,7.83-28.7,4.722-39.387-.472-1.621-.966-3.259-1.462-4.9-4.264-14.165-9.1-30.222-2.837-44.976C672.37,327.666,699.563,323.01,721.412,319.269Z" transform="translate(-376.275 -144.859)" fill="#f2f2f2"/>
    <path id="Path_14" data-name="Path 14" d="M550.691,532.652H358.049a23.819,23.819,0,0,1-23.819-23.819V420.574a9.436,9.436,0,0,1,2.945-6.849l102.081-96.764a21.97,21.97,0,0,1,30.229,0l97.329,92.26a24.666,24.666,0,0,1,7.7,17.9v81.711a23.819,23.819,0,0,1-23.82,23.819Z" transform="translate(-213.612 -227.792)" fill="#323544"/>
    <path id="Path_15" data-name="Path 15" d="M240.954,387.992H479.232v96.246a14.383,14.383,0,0,1-14.383,14.383H255.337a14.383,14.383,0,0,1-14.383-14.383V387.992Z" transform="translate(-120.336 -193.76)" opacity="0.1"/>
    <path id="Path_16" data-name="Path 16" d="M333.73,521.351" transform="translate(-213.362 -332.876)" fill="none" stroke="#3f3d56" stroke-miterlimit="10" stroke-width="1"/>
    <rect id="Rectangle_20" data-name="Rectangle 20" width="177.207" height="177.207" rx="26.181" transform="translate(151.904 118.393)" fill="#f5365c"/>
    <path id="Path_17" data-name="Path 17" d="M480.661,395.942v97.389H303.454V395.942l88.6,42.825Z" transform="translate(-151.55 -197.731)" opacity="0.1"/>
    <path id="Path_18" data-name="Path 18" d="M453.87,582.149l-113.53-54.873a4.606,4.606,0,0,0-6.611,4.147v94.41a14.383,14.383,0,0,0,14.383,14.383H559.627a14.383,14.383,0,0,0,14.383-14.383V533.041a5.621,5.621,0,0,0-8.067-5.061Z" transform="translate(-213.362 -335.606)" fill="#323544"/>
    <rect id="Rectangle_21" data-name="Rectangle 21" width="49.558" height="7.008" transform="translate(167.172 134.662)" fill="#f2f2f2"/>
    <rect id="Rectangle_22" data-name="Rectangle 22" width="147.172" height="4.005" transform="translate(163.168 160.192)" fill="#f2f2f2"/>
    <rect id="Rectangle_23" data-name="Rectangle 23" width="147.172" height="4.005" transform="translate(163.168 173.708)" fill="#f2f2f2"/>
    <rect id="Rectangle_24" data-name="Rectangle 24" width="147.172" height="4.005" transform="translate(163.168 187.223)" fill="#f2f2f2"/>
    <line id="Line_11" data-name="Line 11" x2="412.482" transform="translate(30.513 304.61)" fill="none" stroke="#3f3d56" stroke-miterlimit="10" stroke-width="1"/>
    <path id="Path_19" data-name="Path 19" d="M93.275,630.212c0,29.515,18.516,53.4,41.4,53.4" transform="translate(-93.275 -387.243)" fill="#46455b"/>
    <path id="Path_20" data-name="Path 20" d="M175.975,683.011c0-29.846,20.663-54,46.2-54" transform="translate(-134.577 -386.645)" fill="#6c63ff"/>
    <path id="Path_21" data-name="Path 21" d="M123.239,635.557c0,28.036,11.807,50.722,26.4,50.722" transform="translate(-108.24 -389.913)" fill="#6c63ff"/>
    <path id="Path_22" data-name="Path 22" d="M175.975,668.048c0-38.137,23.883-69,53.4-69" transform="translate(-134.577 -371.681)" fill="#46455b"/>
    <path id="Path_23" data-name="Path 23" d="M158.577,734.47s5.871-.181,7.64-1.441,9.031-2.764,9.47-.744,8.823,10.05,2.195,10.1-15.4-1.032-17.167-2.108S158.577,734.47,158.577,734.47Z" transform="translate(-125.888 -437.727)" fill="#a8a8a8"/>
    <path id="Path_24" data-name="Path 24" d="M178,744.843c-6.628.053-15.4-1.032-17.167-2.108-1.345-.819-1.881-3.759-2.06-5.115l-.2.008s.372,4.735,2.138,5.811,10.539,2.162,17.167,2.108c1.913-.015,2.574-.7,2.538-1.7C180.154,744.451,179.424,744.831,178,744.843Z" transform="translate(-125.888 -440.884)" opacity="0.2"/>
    <path id="Path_25" data-name="Path 25" d="M809.563,299.264c-.3,2.68-2.345,4.84-3.1,7.428-1.14,3.9.831,8.077,3.528,11.112a24.608,24.608,0,0,0,17.137,8.137,7.308,7.308,0,0,0,2.833-.309,6.064,6.064,0,0,0,2.156-1.473,13.779,13.779,0,0,0,3.556-7.71,41.048,41.048,0,0,0,.1-8.617,4.865,4.865,0,0,0-.318-1.738,4.454,4.454,0,0,0-1.119-1.375,26.069,26.069,0,0,0-4.8-3.487,5.511,5.511,0,0,1-2.012-1.539,4.975,4.975,0,0,1-.622-1.843l-.53-2.7a5.311,5.311,0,0,0-.779-2.191c-.937-1.264-2.729-1.436-4.3-1.5l-5.759-.226c-1.791-.07-4.152-.584-5.9-.232-1.633.329-1.091,1.833-.794,3.2A23.159,23.159,0,0,1,809.563,299.264Z" transform="translate(-449.286 -217.775)" fill="#a0616a"/>
    <path id="Path_26" data-name="Path 26" d="M809.563,299.264c-.3,2.68-2.345,4.84-3.1,7.428-1.14,3.9.831,8.077,3.528,11.112a24.608,24.608,0,0,0,17.137,8.137,7.308,7.308,0,0,0,2.833-.309,6.064,6.064,0,0,0,2.156-1.473,13.779,13.779,0,0,0,3.556-7.71,41.048,41.048,0,0,0,.1-8.617,4.865,4.865,0,0,0-.318-1.738,4.454,4.454,0,0,0-1.119-1.375,26.069,26.069,0,0,0-4.8-3.487,5.511,5.511,0,0,1-2.012-1.539,4.975,4.975,0,0,1-.622-1.843l-.53-2.7a5.311,5.311,0,0,0-.779-2.191c-.937-1.264-2.729-1.436-4.3-1.5l-5.759-.226c-1.791-.07-4.152-.584-5.9-.232-1.633.329-1.091,1.833-.794,3.2A23.159,23.159,0,0,1,809.563,299.264Z" transform="translate(-449.286 -217.775)" fill="#ffad50"/>
    <path id="Path_27" data-name="Path 27" d="M856.284,535.4q-1.224,13.42-2.448,26.835c-.639,7.039-1.29,14.106-2.543,21.054-.433,2.394-.94,4.776-1.541,7.137-1.673,6.556-4.1,12.964-4.883,19.686-.025.194-.045.391-.066.589a17.111,17.111,0,0,1-.837,4.368c-.391,1.026-.993,1.962-1.418,2.975a18.985,18.985,0,0,0-1.059,6.466,27.875,27.875,0,0,0-9.6-3.28c-1.628-.243-3.441-.416-4.549-1.632-1.228-1.343-1.092-3.4-.886-5.2q.971-8.407,1.937-16.805a43.8,43.8,0,0,1,1.224-7.137c.223-.779.49-1.545.762-2.312.375-1.055.754-2.11,1.038-3.194a38.471,38.471,0,0,0,.857-5.32c.663-5.638,1.463-11.263,2.163-16.9l.037-.3a172.784,172.784,0,0,0,1.62-25.719c-.033-1.273-.087-2.547-.169-3.824-.115-1.85-.284-2.831,1.249-3.989a28.83,28.83,0,0,1,5.86-3.008c1.043-.453,12.524-4.529,12.791-3.635a22.37,22.37,0,0,1,.841,5.86A65.186,65.186,0,0,1,856.284,535.4Z" transform="translate(-459.37 -333.267)" fill="#605d82"/>
    <path id="Path_28" data-name="Path 28" d="M855.342,623.5c-.433,2.394-.94,4.776-1.541,7.137-1.673,6.556-4.1,12.964-4.883,19.686-.025.194-.045.391-.066.589-5.118-7.311-9.429-15.173-14.423-22.562.375-1.055.754-2.11,1.038-3.194a38.458,38.458,0,0,0,.857-5.32c.664-5.637,1.463-11.263,2.164-16.9l.037-.3a17.5,17.5,0,0,0,1.249,3.466c3.354,6.816,11.324,10.261,15.223,16.785Q855.175,623.2,855.342,623.5Z" transform="translate(-463.419 -373.476)" opacity="0.1"/>
    <path id="Path_29" data-name="Path 29" d="M793.223,491.485a126.817,126.817,0,0,0,1.917,16.284l1.8,11.14c.986,6.1,2.013,12.318,4.9,17.779,2.158,4.085,5.268,7.571,8.081,11.236,6.916,9.01,12.111,19.216,18.669,28.49,1.906,2.7,4.631,5.611,7.884,5.048,2.135-.369,3.686-2.147,5.364-3.517,1.979-1.616,4.363-2.8,5.92-4.823s1.862-5.392-.247-6.833a11.13,11.13,0,0,0-2.414-.988c-3.27-1.243-5.386-4.436-6.732-7.665s-2.162-6.7-3.957-9.7c-3.9-6.523-11.869-9.968-15.224-16.787-1.879-3.819-2.058-8.221-2.2-12.474l-.366-10.844a7.918,7.918,0,0,1,.411-3.5c1.283-2.886,5.158-3.155,8.3-3.521a28.379,28.379,0,0,0,10.167-3.208,10.606,10.606,0,0,0,4.54-4.032,13,13,0,0,0,1.107-5.463l1.086-19.652a12.3,12.3,0,0,0-.417-5.024c-1.5-3.98-6.522-5.28-10.77-5.09-7.9.353-15.2,3.754-22.654,6.05a57.6,57.6,0,0,1-5.615,1.465c-1.673.336-3.7.2-5.292.734-2.837.956-2.765,7.161-3.167,9.734a81.937,81.937,0,0,0-1.084,15.17Z" transform="translate(-442.83 -301.395)" fill="#605d82"/>
    <path id="Path_30" data-name="Path 30" d="M875.928,693.288a5.024,5.024,0,0,1,1.106,2.706,92.4,92.4,0,0,1,1.565,16.365,2.671,2.671,0,0,0,.294,1.483,1.862,1.862,0,0,0,.77.619c2.014.96,4.353-.378,6.031-1.848,3.112-2.726,5.745-6.385,5.922-10.518a24.423,24.423,0,0,1,.112-3.19,13.314,13.314,0,0,1,1.983-4.274,36.069,36.069,0,0,0,3.276-7.345c.306-.963.51-2.175-.245-2.847a2.745,2.745,0,0,0-.9-.466l-9.1-3.379c-.789-.293-2.751,4.748-3.062,5.3a4.164,4.164,0,0,1-3.048,2.424c-1.56.318-3.417-.138-4.873.64C873.3,690.274,874.534,691.881,875.928,693.288Z" transform="translate(-483.358 -412.398)" fill="#535070"/>
    <path id="Path_31" data-name="Path 31" d="M839.113,710.612a2.792,2.792,0,0,0-.693-.878,3.134,3.134,0,0,0-1.4-.475c-1.732-.294-3.786-.488-4.981.8-1.121,1.207-.928,3.174-1.865,4.529-.3.429-.7.782-.956,1.236a4.661,4.661,0,0,0-.419,2.217c-.048,2.1-.1,4.2.048,6.3a8.813,8.813,0,0,0,1.516,4.972c1.763,2.208,4.942,2.526,7.763,2.669l2.285.116a4.462,4.462,0,0,0,1.873-.172,3.083,3.083,0,0,0,1.615-1.777c1.19-2.957-.694-6.142-1.855-9.11C840.713,717.626,840.953,713.838,839.113,710.612Z" transform="translate(-460.584 -426.613)" fill="#535070"/>
    <path id="Path_32" data-name="Path 32" d="M803.827,261.275a1.888,1.888,0,0,1,.128-.881c.335-.592,1.209-.431,1.868-.265,2.651.668,5.445.063,8.175.22s5.805,1.521,6.354,4.2a19.935,19.935,0,0,0,5.04-5.179,6.218,6.218,0,0,0,1.315-3.792c-.149-1.961-1.794-3.428-3.318-4.672l-4.542-3.708a6.844,6.844,0,0,0-2.034-1.293,10.135,10.135,0,0,0-3.3-.187c-3.306,0-6.831-1.5-9.772.009A10.549,10.549,0,0,0,800.7,248.5l-4.054,4.8a2.562,2.562,0,0,0-.648,1.1,4.88,4.88,0,0,0,.29,1.751c.191,1.072-.27,2.216.085,3.246.589,1.709,2.664,1.951,3.933,2.931.473.365,1.214,1.6,1.777,1.588C803.1,263.881,803.8,262.065,803.827,261.275Z" transform="translate(-444.212 -194.889)" fill="#3f3d56"/>
    <circle id="Ellipse_9" data-name="Ellipse 9" cx="12.981" cy="12.981" r="12.981" transform="translate(353.513 54.569)" fill="#ffad50"/>
    <path id="Path_33" data-name="Path 33" d="M800.318,322.554a6.288,6.288,0,0,0-6.122-4.213,1.867,1.867,0,0,1-1.129-.143,1.556,1.556,0,0,1-.464-.58,22.674,22.674,0,0,1-1.893-4.474c-.207-.687-.49-1.5-1.185-1.676a1.6,1.6,0,0,0-1.511.657,13.305,13.305,0,0,1-1.08,1.357c-1.633,1.46-4.527.129-6.259,1.469-.283.219-.517.5-.814.7a3.8,3.8,0,0,1-.953.409,91.42,91.42,0,0,0-9.825,3.848c1.153,6.942,2.334,14,5.036,20.5,1.286,3.092,2.743,6.12,3.772,9.307,2.281,7.06,2.382,14.614,2.408,22.033.018,5.078-.008,10.264-1.651,15.069a14.225,14.225,0,0,0-.928,3.31,3.43,3.43,0,0,0,1.162,3.086,3.974,3.974,0,0,0,1.793.63c2.847.418,5.717-.34,8.52-.989,7.513-1.74,15.175-2.735,22.823-3.728l12.815-1.664a7.44,7.44,0,0,0,2.651-.685c2.345-1.284,2.568-4.811,1.111-7.053a38.32,38.32,0,0,1-2.27-3.1c-.587-1.14-.637-2.733.373-3.522,2.054-1.606,1.441-4.584,1.539-7.19q.411-10.927-.111-21.863a43.523,43.523,0,0,1-.072-4.534,40.16,40.16,0,0,1,1.413-7.566l3.894-15.332a7.989,7.989,0,0,0-4.81-3.09c-1.845-.463-3.767-.6-5.584-1.162-3.722-1.153-7.037-4.081-10.924-3.808a1.983,1.983,0,0,0-.847.207c-.877.5-.738,1.76-.794,2.766-.124,2.226-1.761,4.086-3.569,5.391s-3.873,2.256-5.534,3.743A2.47,2.47,0,0,0,800.318,322.554Z" transform="translate(-430.784 -226.595)" fill="#f5365c"/>
    <path id="Path_34" data-name="Path 34" d="M721.846,360.794a15.327,15.327,0,0,1-2.73,1.4,8.974,8.974,0,0,0-2.616,1.269,4.1,4.1,0,0,0-.909,1.124,5,5,0,0,0,4.608,7.446,10.03,10.03,0,0,0,3.408-1.016l9.156-3.967c1.55-.672,3.224-1.458,3.956-2.98a.692.692,0,0,0,.089-.473.782.782,0,0,0-.376-.4,20.457,20.457,0,0,1-5.331-5.027c-.376-.51-.835-1.714-1.366-2.02C727.8,355.043,723.4,359.787,721.846,360.794Z" transform="translate(-403.747 -250.292)" fill="#ffad50"/>
    <path id="Path_35" data-name="Path 35" d="M902.454,359.084l3.375,3.856c.725.828,1.45,1.657,2.111,2.536a29.606,29.606,0,0,1,3.866,7.283,12.717,12.717,0,0,1,1.086,6.021,14.724,14.724,0,0,1-.844,3.062,38.117,38.117,0,0,1-2.294,5.524,31.469,31.469,0,0,1-2.581,3.868,90.322,90.322,0,0,1-8.557,9.788c-1.154,1.142-1.638,2.99-2.14,4.534-.927,2.848-3.131,5.066-5.263,7.17a14.639,14.639,0,0,1-2.26,1.945,7.361,7.361,0,0,1-4.113,1.171,4.515,4.515,0,0,1-1.853-.383,4.789,4.789,0,0,1-2.353-3.988,8.483,8.483,0,0,1,.71-4.265c1.937-4.291,6.911-6.15,10.427-9.281a33.867,33.867,0,0,0,5.193-6.423,22.2,22.2,0,0,0,2.626-4.6c.785-2.1.48-4.575,1.166-6.705.29-.9.806-1.713,1.117-2.606a3.04,3.04,0,0,0-.155-2.725,3.961,3.961,0,0,0-1.528-1.119c-2.246-1.14-4.762-2.607-5.192-5.089A5.453,5.453,0,0,1,896,364.767a16.2,16.2,0,0,1,2.832-2.968C899.819,360.93,901.471,359.953,902.454,359.084Z" transform="translate(-486.477 -251.838)" fill="#ffad50"/>
    <path id="Path_36" data-name="Path 36" d="M708.869,372.929a6.272,6.272,0,0,0-2.544-3.031,4.688,4.688,0,0,0-3.7-.016,13.9,13.9,0,0,0-3.245,1.962l-2.91,2.145a7.161,7.161,0,0,0-1.727,1.594,6.731,6.731,0,0,0-.9,2.468,17.645,17.645,0,0,0-.457,6.105c.462,3.281,2.44,6.145,4.617,8.643,1.36,1.561,3.04,3.136,5.11,3.2a2.344,2.344,0,0,0,2.258-1.136,2.834,2.834,0,0,0,.2-1.012c.224-3.66-1.086-7.234-2.612-10.568a6.775,6.775,0,0,1-.842-2.84.778.778,0,0,1,.124-.476.8.8,0,0,1,.5-.243c2.089-.413,5.688,1.21,7.154-1.11C710.847,377.114,709.545,374.293,708.869,372.929Z" transform="translate(-392.938 -257.045)" fill="#ffad50"/>
    <path id="Path_37" data-name="Path 37" d="M802.467,253.116a1.889,1.889,0,0,1,.128-.881c.335-.592,1.209-.431,1.868-.265,2.651.668,5.445.063,8.175.22s5.805,1.521,6.354,4.2a19.935,19.935,0,0,0,5.04-5.179,6.218,6.218,0,0,0,1.315-3.792c-.149-1.961-1.794-3.428-3.318-4.672l-4.542-3.708a6.844,6.844,0,0,0-2.034-1.293,10.136,10.136,0,0,0-3.3-.187c-3.306,0-6.831-1.5-9.772.009a10.548,10.548,0,0,0-3.044,2.768l-4.054,4.8a2.562,2.562,0,0,0-.648,1.1,4.88,4.88,0,0,0,.29,1.751c.191,1.072-.27,2.216.085,3.246.589,1.709,2.664,1.951,3.933,2.931.473.365,1.214,1.6,1.777,1.588C801.738,255.722,802.441,253.906,802.467,253.116Z" transform="translate(-443.533 -190.814)" fill="#3f3d56"/>
    <path id="Path_38" data-name="Path 38" d="M748.3,336.058a5.277,5.277,0,0,0-1.359,1.265c-.476.72-.573,1.628-.981,2.388-.875,1.626-2.921,2.2-4.2,3.538a1.322,1.322,0,0,0-.4.692,1.542,1.542,0,0,0,.343,1l6.156,9.677c2.05.18,4.016-1.1,6.066-.933a6.094,6.094,0,0,0,2.283.1,6.547,6.547,0,0,0,1.465-.9c1.223-.773,2.852-.864,3.879-1.884a5.312,5.312,0,0,0,1.1-3.9,15.674,15.674,0,0,0-.366-3.588c-.906-3.714-3.747-6.565-5.528-9.855-.867-1.6-1.339-2.54-3.174-1.44S750.04,334.788,748.3,336.058Z" transform="translate(-416.94 -238.182)" fill="#f5365c"/>
    <path id="Path_39" data-name="Path 39" d="M894.019,327.329a14.4,14.4,0,0,1,3.1,2.712c.938,1.209,1.469,2.689,2.37,3.926a43.822,43.822,0,0,0,3.052,3.232,24.956,24.956,0,0,1,3.518,5.732,85.633,85.633,0,0,1-7.962,9,2.568,2.568,0,0,1-1.209.795,1.95,1.95,0,0,1-1.709-.7c-.443-.465-.758-1.038-1.181-1.521a6.088,6.088,0,0,0-3.763-1.82,25.842,25.842,0,0,0-4.264-.059,1.686,1.686,0,0,1-.911-.153,1.53,1.53,0,0,1-.5-.57c-1.667-2.836-1.13-6.4-.542-9.633l1.349-7.426a16.669,16.669,0,0,1,1.123-4.127c.511-1.092,1.654-2.944,3.059-2.617S892.827,326.472,894.019,327.329Z" transform="translate(-487.897 -234.348)" fill="#f5365c"/>
    <ellipse id="Ellipse_10" data-name="Ellipse 10" cx="20.524" cy="20.561" rx="20.524" ry="20.561" transform="translate(138.639 100.622)" fill="#fff"/>
    <path id="Path_40" data-name="Path 40" d="M386.759,338.851a24.529,24.529,0,1,0,24.529,24.529A24.529,24.529,0,0,0,386.759,338.851Zm-5.035,37.607-12.571-12.571,3.526-3.526,9.056,9.056L400.851,350.3l3.526,3.526-22.654,22.63Z" transform="translate(-227.595 -241.733)" fill="#57b894"/>
  </g>
</svg>
